<?xml version="1.0" encoding="utf-8"?><!-- Uploaded to: SVG Repo, www.svgrepo.com, Generator: SVG Repo Mixer Tools -->
<svg fill="#000000" width="800px" height="800px" viewBox="0 0 24 24" id="sign-out" data-name="Flat Line" xmlns="http://www.w3.org/2000/svg" class="icon flat-line"><path id="secondary" d="M14.56,18.35,13,17.05a1,1,0,0,1-.11-1.41L14.34,14H7V10h7.34L12.93,8.36A1,1,0,0,1,13,7l1.52-1.3A1,1,0,0,1,16,5.76l4.79,5.59a1,1,0,0,1,0,1.3L16,18.24A1,1,0,0,1,14.56,18.35Z" style="fill: rgb(44, 169, 188); stroke-width: 2;"></path><path id="primary" d="M7,20H4a1,1,0,0,1-1-1V5A1,1,0,0,1,4,4H7" style="fill: none; stroke: rgb(0, 0, 0); stroke-linecap: round; stroke-linejoin: round; stroke-width: 2;"></path><path id="primary-2" data-name="primary" d="M14.56,18.35,13,17.05a1,1,0,0,1-.11-1.41L14.34,14H7V10h7.34L12.93,8.36A1,1,0,0,1,13,7l1.52-1.3A1,1,0,0,1,16,5.76l4.79,5.59a1,1,0,0,1,0,1.3L16,18.24A1,1,0,0,1,14.56,18.35Z" style="fill: none; stroke: rgb(0, 0, 0); stroke-linecap: round; stroke-linejoin: round; stroke-width: 2;"></path></svg>